<svg version="1" xmlns="http://www.w3.org/2000/svg" width="346.667" height="346.667" viewBox="0 0 260.000000 260.000000"><path d="M127 28.8c-2.2.4-7 4.7-6.8 6.1.1.3-.4 1.9-1.1 3.6-.7 1.6-1.4 3.5-1.5 4.2-.1.7-.5 1.6-.9 1.9-.4.4-.7 1.6-.7 2.6s-.4 1.8-1 1.8c-.5 0-.9.3-.8.7.3.9-4.9 15.1-8 22.5-1.1 2.5-1.8 4.9-1.5 5.2.4.3.2.6-.4.6-.5 0-1 .6-1 1.2 0 .7-.7 2.9-1.6 4.8-1.6 3.5-6.1 15-6.2 16 0 .3-.4 1.1-.8 1.7-.5.7-1 2.3-1.2 3.4-.3 1.2-.6 2.3-.8 2.5-.8.8-14.9.9-15.3.2-.3-.5-1-.5-1.6-.2-.5.4-3.3.7-6.1.9-4.1.1-5.5.7-7.4 2.9-1.3 1.5-2.1 3.2-1.8 3.7.4.5.1.9-.6.9-1 0-1 .3-.1 1.2.7.7 1.2 1.8 1.2 2.6s1.1 2.4 2.5 3.6c2.1 1.8 3.7 2.1 12 2.1 10.4-.1 10.8.2 8 5.5-.9 1.7-1.6 3.3-1.6 3.7-.1.5-.6 1.9-1.2 3.3-1.1 2.7-1.4 3.5-1.6 4.9 0 .4-5.8.8-12.8.9-17.6 0-17.1 0-19.2 2.1-1.1 1.1-2.3 1.6-2.7 1.3-.4-.4-.4-.2 0 .5.3.6.2 1.4-.2 1.7-1 .6-.8 3.8.2 7.1 1.2 3.4 5.3 4.5 16.7 4.5h10.8l-1.9 5.6c-1.1 3.1-2.5 6.3-3.1 7-.6.8-.9 1.4-.6 1.4.3 0-.5 2.6-1.7 5.7-2.6 6.6-3.3 8.5-3.5 9.6 0 .4-.7 2-1.5 3.6-.9 1.6-1.2 3.1-.9 3.5.4.3.1.6-.5.6-.7 0-1.2.6-1.2 1.4 0 .7-1.4 4.6-3 8.7-5.5 13.3-6.2 15.8-5 19.4 1.1 3.3 4.4 5.5 8.4 5.5 3.6 0 7.2-3.5 8.7-8.5.7-2.5 1.8-4.5 2.3-4.5.5 0 .7-.3.3-.6-.3-.4.1-2.3.9-4.3.9-2 1.7-4.1 1.8-4.6.3-1 .8-2.2 3.9-9.8.9-2 1.7-3.9 1.7-4.2.1-.3.6-1.9 1.3-3.7.6-1.8 1-3.6.9-4.1-.1-.4.3-.7.8-.7s.9-.3.8-.8c-.1-.4.4-2.1 1.1-3.7 3.5-8.7 7.4-19.2 7.6-20.5.2-1.3 5.5-1.5 39.7-1.8l39.5-.3 2.2 5.2c1.1 2.8 2.1 6 2.1 7.1 0 1.1.4 1.7.8 1.4.4-.2 1.4 1.6 2.2 4.2 1.3 4.5 1.8 5.8 4 10.2.6 1.1 1.7 4.1 2.6 6.6.8 2.5 2.5 6.6 3.6 9.2 1.2 2.6 2.3 5.5 2.4 6.4.2 1 1.3 3.9 2.5 6.5 3.8 8.7 4.6 10.8 4.7 11.6 0 .5 1 1.7 2.1 2.6 3.1 2.7 9 1.9 11.9-1.5 2.8-3.2 2.5-7.4-.7-14.7-1-2.3-4.2-10.3-7.1-17.7-6.3-16.3-6.2-16.3-9-22.5-1.2-2.8-2.3-5.5-2.4-6-.1-.6-.4-1.5-.7-2-.4-.6-.9-2.2-1.3-3.8l-.6-2.7 10.2-.1c5.7-.1 10.7-.1 11.1 0 1.3.2 5.7-3.6 5-4.3-.3-.3-.2-.6.4-.6.9 0 1-2 .4-7.6 0-.7-1.8-2-3.8-3-3-1.4-6.5-1.8-17.2-1.8-14.3-.1-13.5.2-15.9-5.6-2.6-6.5-3.7-9.6-3.4-10.3.1-.4-.3-.7-1-.7-.6 0-.8-.3-.4-.8.4-.4 4.7-.8 9.4-.9 11-.2 11.9-.4 13.9-3.4 2.4-3.3 2.6-5.5.8-9-2.2-4.1-4.4-4.7-16.8-4.6-5.9 0-11-.2-11.3-.6-.3-.3-1.2-.3-1.9-.1-.8.3-1.6-.4-2-1.7-.4-1.2-1.4-3.7-2.1-5.6-.8-1.8-1.4-3.5-1.3-3.8 0-.4-.7-1.7-1.6-3.1-.9-1.3-1.3-2.9-1-3.4.3-.6.1-1-.4-1-.6 0-1.1-.4-1.1-1 0-1.1-8.3-22.7-11.1-28.7-1-2.4-1.9-4.9-1.9-5.7 0-.8-.5-1.8-1-2.1-.6-.4-.8-1.1-.5-1.6.4-.5.1-.9-.5-.9-.7 0-1-.7-.6-1.5.3-.8.1-1.5-.4-1.5-.6 0-1-.7-1-1.5s-.4-2.3-.9-3.3c-.4-.9-1.8-3.8-2.9-6.3-2.2-4.9-5.4-6.8-10.2-6.1zm4.9 38.8c.8 2.5 2.2 6.2 3.1 8.3 1 2 2.8 6.5 4.1 10.1 1.2 3.6 2.5 6.7 2.8 7 .3.3.7 1.2.9 2 .3 1.5 1.7 5 3.3 8.2 1.7 3.3 1 4.8-2.1 4.9-14.4.3-32.2 0-32.7-.5-.3-.3-.2-1.1.4-1.8.5-.7 1.7-3.8 2.7-6.8 1.1-3 2.3-6.1 2.9-6.8.5-.6.6-1.2.3-1.2-.4 0-.1-1 .6-2.3.6-1.2 1.3-3.1 1.5-4.1.2-1.1.7-2.4 1.2-3 .4-.6 2.3-5.2 4.1-10.2 1.9-5.3 3.8-9 4.5-8.8.6.3 1.7 2.5 2.4 5zm22.9 58.9c1 1.1 4.7 10.8 4.3 11.3-.1.2.4 1.4 1.3 2.7.9 1.3 1.2 2.6.8 2.8-.6.4-63.1.2-64.1-.2-.2 0 .2-.7.8-1.4.6-.8 1.2-2.2 1.4-3.3.2-1 1.1-3.6 2.1-5.6.9-2.1 1.6-4.1 1.6-4.6 0-.4.4-1.2 1-1.8 1.3-1.3 49.6-1.2 50.8.1z"/><path d="M176.6 37.9c-2.6 1.7-5.7 6.9-5.5 8.9.1.4.1 1.9 0 3.4-.1 2.1-.5 2.6-2.1 2.3-3.9-.8-5 2.9-5 17.1 0 11.8.2 13.3 2 14.9 1.1 1 2.3 1.5 2.6 1.2.4-.3 1.5-.2 2.5.4 1.1.5 1.9.6 1.9.2 0-.4 5.8-.7 12.8-.7 12.7.1 15.3-.4 16-3.4.7-3.7.9-7.2.2-7.2-.8 0-.5-4.9.4-5.7.3-.4.1-1.2-.5-2-.9-1-.8-1.3.1-1.3 1 0 1-.3.1-1.4-.8-1-.9-1.6-.1-2.1.7-.4.7-1.2 0-2.5s-.6-2 .1-2.2c1.8-.6-2.4-4.9-4.8-5.1-1.9-.1-2.3-.7-2.4-3.7-.1-4.1-.7-5.7-3.6-9.4-3-3.7-10.5-4.6-14.7-1.7zm12.4 6.3c1 1.7 1.7 3.7 1.5 4.6-.2 1-.4 2.2-.4 2.8-.1.8-10.4 1.2-14.2.5-1.1-.2 0-6.4 1.6-8.7 2.7-4.2 8.7-3.7 11.5.8zm-1.9 23c.8 1.4.6 2.5-.5 4.4-1.9 2.8-5.2 2.7-7.2-.1-1.8-2.5-1.8-3.1.5-5.4 2.3-2.3 5.7-1.8 7.2 1.1z"/></svg>